<svg xmlns="http://www.w3.org/2000/svg" xmlns:xlink="http://www.w3.org/1999/xlink" width="200" zoomAndPan="magnify" viewBox="0 0 150 74.999997" height="100" preserveAspectRatio="xMidYMid meet" version="1.0"><defs><g/><clipPath id="132ac573c5"><path d="M 22 9.003906 L 76.71875 9.003906 L 76.71875 64.800781 L 22 64.800781 Z M 22 9.003906 " clip-rule="nonzero"/></clipPath><clipPath id="cf7506133f"><path d="M 18.21875 12 L 41 12 L 41 56 L 18.21875 56 Z M 18.21875 12 " clip-rule="nonzero"/></clipPath><clipPath id="982c2817fe"><path d="M 18.21875 11 L 40 11 L 40 42 L 18.21875 42 Z M 18.21875 11 " clip-rule="nonzero"/></clipPath></defs><g clip-path="url(#132ac573c5)"><path fill="#0cc0df" d="M 77.054688 22.132812 L 77.046875 21.902344 C 75.535156 21.746094 74.015625 21.460938 72.515625 21.128906 C 66.496094 19.785156 60.648438 17.625 55.03125 15.105469 C 53.492188 14.402344 51.621094 13.519531 50.128906 12.742188 C 48.289062 11.824219 46.296875 10.710938 44.503906 9.714844 L 43.34375 9.023438 L 22.964844 55.054688 L 22.746094 55.632812 L 22.699219 55.753906 L 22.007812 57.558594 C 22.785156 57.589844 23.761719 57.644531 24.53125 57.707031 C 26.117188 57.828125 27.867188 58.007812 29.457031 58.199219 C 35.214844 58.894531 42.445312 60.265625 48.117188 61.5 C 52.945312 62.527344 57.882812 63.808594 62.632812 65.144531 C 61.058594 64.609375 59.488281 64.054688 57.902344 63.53125 C 53.191406 61.984375 48.300781 60.539062 43.5 59.308594 C 37.960938 57.929688 31.953125 56.269531 26.167969 55.34375 L 44.660156 12.492188 C 47.816406 14.023438 51.089844 15.496094 54.335938 16.753906 C 60.164062 19 66.011719 21.433594 72.179688 22.464844 C 73.554688 22.691406 74.925781 22.882812 76.332031 22.972656 C 76.363281 23.4375 76.964844 32.453125 76.964844 32.453125 L 77.054688 22.132812 " fill-opacity="1" fill-rule="nonzero"/></g><g clip-path="url(#cf7506133f)"><path fill="#0cc0df" d="M 18.96875 47.386719 L 18.21875 48.699219 L 21.433594 55.363281 L 40.714844 12.3125 L 18.96875 47.386719 " fill-opacity="1" fill-rule="nonzero"/></g><g clip-path="url(#982c2817fe)"><path fill="#0cc0df" d="M 39.964844 11.566406 L 18.328125 38.023438 L 20.761719 41.648438 Z M 39.964844 11.566406 " fill-opacity="1" fill-rule="nonzero"/></g><path fill="#0cc0df" d="M 59.640625 6.191406 C 60.128906 6.398438 60.640625 6.867188 61.058594 7.769531 C 58.027344 9.277344 55.179688 12.414062 54.742188 12.910156 L 56.289062 13.589844 C 57.300781 12.445312 59.417969 10.234375 61.507812 9.054688 C 61.9375 10.699219 62.140625 13.175781 61.886719 16.859375 L 63.007812 16.949219 C 63.257812 13.363281 63.152344 10.546875 62.640625 8.523438 C 63.449219 8.234375 64.21875 8.164062 64.886719 8.441406 C 66.203125 8.992188 67.664062 11.445312 67.132812 19.105469 L 68.253906 19.199219 C 68.730469 12.328125 67.921875 8.289062 65.390625 7.230469 C 64.417969 6.824219 63.332031 6.910156 62.226562 7.277344 C 61.742188 6.132812 61.054688 5.363281 60.144531 4.980469 C 56.152344 3.3125 50.144531 9.925781 49.496094 10.664062 L 51.042969 11.34375 C 52.636719 9.535156 56.984375 5.082031 59.640625 6.191406 " fill-opacity="1" fill-rule="nonzero"/><g fill="#545454" fill-opacity="1"><g transform="translate(50.119019, 50.421336)"><g><path d="M 1.617188 0 L 7.953125 0 C 10.6875 0 12.535156 -1.5 12.535156 -3.773438 C 12.535156 -5.21875 11.785156 -6.375 10.511719 -6.933594 C 11.535156 -7.527344 12.132812 -8.589844 12.132812 -9.859375 C 12.132812 -12.074219 10.378906 -13.480469 7.644531 -13.480469 L 1.617188 -13.480469 Z M 4.640625 -2.425781 L 4.640625 -5.660156 L 7.492188 -5.660156 C 8.703125 -5.660156 9.398438 -5.0625 9.398438 -4.042969 C 9.398438 -3.023438 8.703125 -2.425781 7.492188 -2.425781 Z M 4.640625 -7.992188 L 4.640625 -11.050781 L 7.183594 -11.050781 C 8.355469 -11.050781 9.011719 -10.511719 9.011719 -9.53125 C 9.011719 -8.550781 8.355469 -7.992188 7.183594 -7.992188 Z M 4.640625 -7.992188 "/></g></g></g><g fill="#545454" fill-opacity="1"><g transform="translate(63.385505, 50.421336)"><g><path d="M 1.617188 0 L 10.570312 0 L 10.570312 -2.867188 L 4.679688 -2.867188 L 4.679688 -13.480469 L 1.617188 -13.480469 Z M 1.617188 0 "/></g></g></g><g fill="#545454" fill-opacity="1"><g transform="translate(74.476209, 50.421336)"><g><path d="M 7.125 0.269531 C 10.628906 0.269531 12.765625 -1.925781 12.765625 -5.546875 L 12.765625 -13.480469 L 9.703125 -13.480469 L 9.703125 -5.757812 C 9.703125 -3.695312 8.839844 -2.636719 7.125 -2.636719 C 5.410156 -2.636719 4.542969 -3.695312 4.542969 -5.757812 L 4.542969 -13.480469 L 1.484375 -13.480469 L 1.484375 -5.546875 C 1.484375 -1.925781 3.621094 0.269531 7.125 0.269531 Z M 7.125 0.269531 "/></g></g></g><g fill="#545454" fill-opacity="1"><g transform="translate(88.724686, 50.421336)"><g><path d="M 1.617188 0 L 7.953125 0 C 10.6875 0 12.535156 -1.5 12.535156 -3.773438 C 12.535156 -5.21875 11.785156 -6.375 10.511719 -6.933594 C 11.535156 -7.527344 12.132812 -8.589844 12.132812 -9.859375 C 12.132812 -12.074219 10.378906 -13.480469 7.644531 -13.480469 L 1.617188 -13.480469 Z M 4.640625 -2.425781 L 4.640625 -5.660156 L 7.492188 -5.660156 C 8.703125 -5.660156 9.398438 -5.0625 9.398438 -4.042969 C 9.398438 -3.023438 8.703125 -2.425781 7.492188 -2.425781 Z M 4.640625 -7.992188 L 4.640625 -11.050781 L 7.183594 -11.050781 C 8.355469 -11.050781 9.011719 -10.511719 9.011719 -9.53125 C 9.011719 -8.550781 8.355469 -7.992188 7.183594 -7.992188 Z M 4.640625 -7.992188 "/></g></g></g><g fill="#545454" fill-opacity="1"><g transform="translate(101.991172, 50.421336)"><g><path d="M 1.617188 0 L 10.570312 0 L 10.570312 -2.867188 L 4.679688 -2.867188 L 4.679688 -13.480469 L 1.617188 -13.480469 Z M 1.617188 0 "/></g></g></g><g fill="#545454" fill-opacity="1"><g transform="translate(113.081876, 50.421336)"><g><path d="M 7.125 0.269531 C 10.628906 0.269531 12.765625 -1.925781 12.765625 -5.546875 L 12.765625 -13.480469 L 9.703125 -13.480469 L 9.703125 -5.757812 C 9.703125 -3.695312 8.839844 -2.636719 7.125 -2.636719 C 5.410156 -2.636719 4.542969 -3.695312 4.542969 -5.757812 L 4.542969 -13.480469 L 1.484375 -13.480469 L 1.484375 -5.546875 C 1.484375 -1.925781 3.621094 0.269531 7.125 0.269531 Z M 7.125 0.269531 "/></g></g></g></svg>