<svg xmlns="http://www.w3.org/2000/svg" xmlns:xlink="http://www.w3.org/1999/xlink" width="100" zoomAndPan="magnify" viewBox="0 0 75 37.5" height="50" preserveAspectRatio="xMidYMid meet" version="1.0"><defs><g/><clipPath id="f3630d866c"><path d="M 11.324219 4.445312 L 38.347656 4.445312 L 38.347656 31.976562 L 11.324219 31.976562 Z M 11.324219 4.445312 " clip-rule="nonzero"/></clipPath><clipPath id="59f13f0963"><path d="M 9.484375 6 L 21 6 L 21 28 L 9.484375 28 Z M 9.484375 6 " clip-rule="nonzero"/></clipPath><clipPath id="a6e9eb3d58"><path d="M 9.484375 5 L 21 5 L 21 21 L 9.484375 21 Z M 9.484375 5 " clip-rule="nonzero"/></clipPath></defs><g clip-path="url(#f3630d866c)"><path fill="#0cc0df" d="M 38.507812 10.921875 L 38.503906 10.808594 C 37.757812 10.730469 37.007812 10.589844 36.269531 10.425781 C 33.300781 9.765625 30.414062 8.699219 27.644531 7.457031 C 26.882812 7.109375 25.960938 6.671875 25.226562 6.289062 C 24.316406 5.835938 23.332031 5.289062 22.449219 4.796875 L 21.878906 4.457031 L 11.824219 27.164062 L 11.714844 27.449219 L 11.691406 27.507812 L 11.351562 28.398438 C 11.734375 28.414062 12.214844 28.441406 12.597656 28.472656 C 13.378906 28.53125 14.242188 28.621094 15.027344 28.714844 C 17.867188 29.058594 21.433594 29.734375 24.230469 30.34375 C 26.613281 30.851562 29.050781 31.480469 31.394531 32.140625 C 30.617188 31.875 29.839844 31.601562 29.058594 31.34375 C 26.734375 30.582031 24.324219 29.871094 21.953125 29.261719 C 19.222656 28.582031 16.257812 27.761719 13.40625 27.304688 L 22.527344 6.167969 C 24.085938 6.921875 25.699219 7.648438 27.300781 8.269531 C 30.175781 9.378906 33.0625 10.578125 36.101562 11.085938 C 36.78125 11.199219 37.457031 11.292969 38.152344 11.335938 C 38.167969 11.566406 38.464844 16.011719 38.464844 16.011719 L 38.507812 10.921875 " fill-opacity="1" fill-rule="nonzero"/></g><g clip-path="url(#59f13f0963)"><path fill="#0cc0df" d="M 9.851562 23.378906 L 9.484375 24.027344 L 11.070312 27.316406 L 20.582031 6.078125 L 9.851562 23.378906 " fill-opacity="1" fill-rule="nonzero"/></g><g clip-path="url(#a6e9eb3d58)"><path fill="#0cc0df" d="M 20.210938 5.707031 L 9.539062 18.761719 L 10.738281 20.550781 Z M 20.210938 5.707031 " fill-opacity="1" fill-rule="nonzero"/></g><path fill="#0cc0df" d="M 29.917969 3.058594 C 30.160156 3.160156 30.410156 3.390625 30.617188 3.835938 C 29.121094 4.578125 27.714844 6.128906 27.5 6.371094 L 28.261719 6.707031 C 28.761719 6.140625 29.808594 5.054688 30.839844 4.46875 C 31.050781 5.28125 31.152344 6.503906 31.023438 8.320312 L 31.578125 8.363281 C 31.699219 6.59375 31.652344 5.207031 31.398438 4.210938 C 31.796875 4.066406 32.175781 4.03125 32.503906 4.167969 C 33.15625 4.4375 33.875 5.648438 33.613281 9.429688 L 34.164062 9.472656 C 34.402344 6.085938 34 4.089844 32.753906 3.570312 C 32.273438 3.371094 31.738281 3.410156 31.195312 3.59375 C 30.953125 3.027344 30.617188 2.648438 30.164062 2.460938 C 28.195312 1.636719 25.234375 4.898438 24.914062 5.261719 L 25.675781 5.597656 C 26.460938 4.707031 28.609375 2.511719 29.917969 3.058594 " fill-opacity="1" fill-rule="nonzero"/><g fill="#545454" fill-opacity="1"><g transform="translate(25.2232, 24.878952)"><g><path d="M 0.796875 0 L 3.925781 0 C 5.273438 0 6.183594 -0.742188 6.183594 -1.863281 C 6.183594 -2.574219 5.816406 -3.144531 5.1875 -3.421875 C 5.691406 -3.714844 5.984375 -4.238281 5.984375 -4.863281 C 5.984375 -5.957031 5.121094 -6.652344 3.773438 -6.652344 L 0.796875 -6.652344 Z M 2.289062 -1.195312 L 2.289062 -2.792969 L 3.695312 -2.792969 C 4.292969 -2.792969 4.636719 -2.5 4.636719 -1.996094 C 4.636719 -1.492188 4.292969 -1.195312 3.695312 -1.195312 Z M 2.289062 -3.941406 L 2.289062 -5.453125 L 3.542969 -5.453125 C 4.125 -5.453125 4.445312 -5.1875 4.445312 -4.703125 C 4.445312 -4.21875 4.125 -3.941406 3.542969 -3.941406 Z M 2.289062 -3.941406 "/></g></g></g><g fill="#545454" fill-opacity="1"><g transform="translate(31.769164, 24.878952)"><g><path d="M 0.796875 0 L 5.214844 0 L 5.214844 -1.414062 L 2.308594 -1.414062 L 2.308594 -6.652344 L 0.796875 -6.652344 Z M 0.796875 0 "/></g></g></g><g fill="#545454" fill-opacity="1"><g transform="translate(37.241551, 24.878952)"><g><path d="M 3.515625 0.132812 C 5.246094 0.132812 6.300781 -0.949219 6.300781 -2.734375 L 6.300781 -6.652344 L 4.789062 -6.652344 L 4.789062 -2.839844 C 4.789062 -1.824219 4.359375 -1.300781 3.515625 -1.300781 C 2.667969 -1.300781 2.242188 -1.824219 2.242188 -2.839844 L 2.242188 -6.652344 L 0.730469 -6.652344 L 0.730469 -2.734375 C 0.730469 -0.949219 1.785156 0.132812 3.515625 0.132812 Z M 3.515625 0.132812 "/></g></g></g><g fill="#545454" fill-opacity="1"><g transform="translate(44.27205, 24.878952)"><g><path d="M 0.796875 0 L 3.925781 0 C 5.273438 0 6.183594 -0.742188 6.183594 -1.863281 C 6.183594 -2.574219 5.816406 -3.144531 5.1875 -3.421875 C 5.691406 -3.714844 5.984375 -4.238281 5.984375 -4.863281 C 5.984375 -5.957031 5.121094 -6.652344 3.773438 -6.652344 L 0.796875 -6.652344 Z M 2.289062 -1.195312 L 2.289062 -2.792969 L 3.695312 -2.792969 C 4.292969 -2.792969 4.636719 -2.5 4.636719 -1.996094 C 4.636719 -1.492188 4.292969 -1.195312 3.695312 -1.195312 Z M 2.289062 -3.941406 L 2.289062 -5.453125 L 3.542969 -5.453125 C 4.125 -5.453125 4.445312 -5.1875 4.445312 -4.703125 C 4.445312 -4.21875 4.125 -3.941406 3.542969 -3.941406 Z M 2.289062 -3.941406 "/></g></g></g><g fill="#545454" fill-opacity="1"><g transform="translate(50.818014, 24.878952)"><g><path d="M 0.796875 0 L 5.214844 0 L 5.214844 -1.414062 L 2.308594 -1.414062 L 2.308594 -6.652344 L 0.796875 -6.652344 Z M 0.796875 0 "/></g></g></g><g fill="#545454" fill-opacity="1"><g transform="translate(56.290401, 24.878952)"><g><path d="M 3.515625 0.132812 C 5.246094 0.132812 6.300781 -0.949219 6.300781 -2.734375 L 6.300781 -6.652344 L 4.789062 -6.652344 L 4.789062 -2.839844 C 4.789062 -1.824219 4.359375 -1.300781 3.515625 -1.300781 C 2.667969 -1.300781 2.242188 -1.824219 2.242188 -2.839844 L 2.242188 -6.652344 L 0.730469 -6.652344 L 0.730469 -2.734375 C 0.730469 -0.949219 1.785156 0.132812 3.515625 0.132812 Z M 3.515625 0.132812 "/></g></g></g></svg>